<?xml version="1.0" encoding="UTF-8" standalone="no"?>
<svg
   version="1.0"
   width="512.000000pt"
   height="512.000000pt"
   viewBox="0 0 512.000000 512.000000"
   preserveAspectRatio="xMidYMid meet"
   id="svg14"
   sodipodi:docname="icone.svg"
   inkscape:export-filename="icone.png"
   inkscape:export-xdpi="87.609375"
   inkscape:export-ydpi="87.609375"
   inkscape:version="1.3.2 (091e20e, 2023-11-25)"
   xmlns:inkscape="http://www.inkscape.org/namespaces/inkscape"
   xmlns:sodipodi="http://sodipodi.sourceforge.net/DTD/sodipodi-0.dtd"
   xmlns:xlink="http://www.w3.org/1999/xlink"
   xmlns="http://www.w3.org/2000/svg"
   xmlns:svg="http://www.w3.org/2000/svg">
  <defs
     id="defs14">
    <linearGradient
       id="linearGradient1"
       inkscape:collect="always">
      <stop
         style="stop-color:#ff4d00;stop-opacity:1;"
         offset="0.45899263"
         id="stop1" />
      <stop
         style="stop-color:#ffd700;stop-opacity:1;"
         offset="0.64134061"
         id="stop2" />
    </linearGradient>
    <linearGradient
       inkscape:collect="always"
       xlink:href="#linearGradient1"
       id="linearGradient2"
       x1="232.08339"
       y1="2575.4073"
       x2="4848.5"
       y2="2575.4073"
       gradientUnits="userSpaceOnUse" />
  </defs>
  <sodipodi:namedview
     id="namedview14"
     pagecolor="#ffffff"
     bordercolor="#000000"
     borderopacity="0"
     inkscape:showpageshadow="2"
     inkscape:pageopacity="0.0"
     inkscape:pagecheckerboard="0"
     inkscape:deskcolor="#d1d1d1"
     inkscape:document-units="pt"
     inkscape:export-bgcolor="#ffffff00"
     inkscape:zoom="0.41328458"
     inkscape:cx="133.08021"
     inkscape:cy="454.89236"
     inkscape:window-width="1920"
     inkscape:window-height="1011"
     inkscape:window-x="1600"
     inkscape:window-y="32"
     inkscape:window-maximized="1"
     inkscape:current-layer="svg14" />
  <metadata
     id="metadata1">
Created by potrace 1.16, written by Peter Selinger 2001-2019
</metadata>
  <g
     transform="matrix(0.1126787,0,0,-0.11387293,-31.897784,549.17812)"
     fill="#000000"
     stroke="none"
     id="g14"
     style="fill:url(#linearGradient2);fill-opacity:1">
    <path
       d="M 1193,4809 C 903,4748 584,4563 436,4371 375,4292 305,4150 327,4150 c 5,0 35,20 68,45 157,118 469,186 833,184 184,-2 180,-5 -33,-28 -327,-35 -476,-69 -609,-139 -182,-96 -294,-280 -342,-563 -19,-115 -15,-328 10,-469 12,-70 14,-73 24,-47 7,15 21,65 32,110 52,208 111,345 193,450 l 45,58 -5,-43 -5,-43 28,45 c 52,85 85,119 162,166 93,57 124,85 164,144 74,109 178,193 323,261 98,46 125,51 41,8 -32,-17 -77,-50 -100,-73 -80,-83 -211,-319 -297,-534 -38,-94 -48,-142 -63,-282 l -11,-115 -23,68 c -49,149 -37,324 34,476 19,41 32,76 30,78 -10,10 -79,-91 -96,-140 -55,-157 -51,-299 15,-492 28,-82 43,-139 39,-155 -3,-14 14,12 39,56 72,131 124,203 217,299 106,109 115,132 106,260 -7,102 -11,88 93,277 40,72 86,129 122,148 14,8 13,0 -6,-48 -24,-61 -43,-149 -26,-122 5,9 23,54 40,100 37,100 48,114 118,140 42,15 78,20 161,20 h 107 l -76,-34 c -79,-34 -125,-63 -150,-92 -7,-9 8,-2 35,14 69,44 189,92 246,99 51,6 187,-15 173,-27 -4,-3 -33,-12 -63,-19 -30,-6 -75,-24 -100,-38 -37,-22 -58,-27 -115,-27 -98,-1 -168,-36 -226,-114 -57,-76 -65,-81 -124,-82 -59,-1 -89,-15 -116,-56 -27,-41 -24,-49 11,-24 17,12 60,26 98,32 66,11 68,12 147,93 44,46 91,88 104,95 31,16 98,15 118,-1 22,-19 10,-75 -27,-121 -35,-43 -27,-47 40,-23 69,24 126,19 189,-17 73,-41 131,-41 274,0 145,42 208,48 287,28 35,-9 65,-18 66,-19 0,-1 4,-14 8,-29 6,-26 5,-26 -26,-17 -51,14 -169,11 -229,-7 -134,-39 -267,-132 -421,-293 -119,-124 -205,-248 -282,-406 -217,-444 -262,-865 -135,-1255 53,-162 176,-383 297,-535 118,-147 328,-332 465,-408 148,-83 333,-117 529,-98 285,28 517,136 668,312 182,212 259,399 267,655 11,324 -96,707 -360,1287 -151,330 -230,455 -365,569 -65,56 -178,120 -235,134 -35,8 -40,17 -26,48 15,32 20,32 56,2 50,-41 115,-68 168,-70 41,-1 60,5 103,33 57,36 43,35 239,15 34,-3 73,-4 86,0 31,7 127,93 127,113 0,21 -95,126 -160,177 -153,120 -272,132 -449,45 -69,-34 -101,-58 -172,-131 l -88,-89 -35,32 c -45,39 -58,82 -40,128 19,45 18,64 -6,94 -11,14 -25,48 -30,76 -5,28 -18,68 -29,88 -28,56 -176,194 -256,240 -139,80 -404,167 -588,192 -123,17 -328,13 -434,-10 z m 562,-53 c 160,-38 255,-71 390,-136 157,-76 198,-117 233,-230 13,-41 44,-242 38,-247 -6,-6 -13,20 -36,131 -18,89 -56,186 -82,211 -6,6 -1,-8 10,-30 30,-59 50,-135 58,-217 6,-65 5,-72 -8,-60 -9,7 -30,52 -47,102 -31,86 -121,244 -163,285 -11,11 -5,-4 15,-35 52,-82 93,-169 112,-234 23,-77 11,-83 -20,-10 -49,115 -113,224 -178,307 -34,42 -22,11 19,-50 53,-80 109,-194 119,-243 l 7,-35 -23,20 c -71,58 -105,98 -147,175 -29,52 -72,110 -113,151 -96,97 -128,107 -38,12 50,-53 88,-103 108,-146 41,-85 40,-93 -9,-66 -27,15 -56,47 -90,98 -69,107 -166,196 -242,224 -29,10 -21,2 38,-38 70,-48 122,-107 164,-186 l 33,-62 -33,19 c -18,11 -55,45 -84,78 -57,65 -153,145 -206,170 l -35,17 30,-23 c 76,-58 185,-177 185,-202 0,-10 -34,7 -120,61 -99,63 -272,150 -315,159 -21,4 -15,-2 22,-20 73,-35 265,-148 260,-152 -2,-2 -24,3 -48,12 -84,30 -294,85 -359,93 -36,5 -85,6 -110,2 -42,-6 -39,-7 41,-14 104,-8 178,-27 468,-118 258,-80 371,-132 552,-251 229,-150 407,-291 268,-212 -35,20 -98,55 -139,78 -41,23 -111,63 -155,89 -281,164 -801,261 -1135,213 -136,-20 -306,-63 -416,-105 l -79,-30 45,40 c 53,46 186,114 277,139 35,11 119,25 186,32 l 122,13 -96,3 c -59,2 -126,-3 -170,-12 -89,-19 -235,-89 -324,-156 -36,-27 -65,-46 -65,-42 0,18 123,141 190,192 162,120 421,229 616,260 109,17 356,4 479,-24 z m 696,-398 c 20,-39 27,-117 15,-156 -11,-32 1,-27 20,10 l 16,32 15,-28 c 16,-31 13,-43 -31,-103 l -24,-33 -15,39 c -9,21 -19,67 -23,102 -7,59 -6,63 9,50 15,-12 17,-10 17,13 0,15 -11,54 -25,89 -25,64 -11,55 26,-15 z m -1004,-14 c -3,-3 -12,-4 -19,-1 -8,3 -5,6 6,6 11,1 17,-2 13,-5 z m 356,-10 c 71,-16 244,-79 261,-95 5,-4 -58,14 -140,40 -82,27 -165,53 -184,59 -55,16 -16,14 63,-4 z m -416,0 c -3,-3 -12,-4 -19,-1 -8,3 -5,6 6,6 11,1 17,-2 13,-5 z m -234,-34 c -81,-29 -300,-150 -348,-192 -39,-35 -48,-38 -102,-38 -60,0 -157,-23 -168,-39 -3,-5 16,-2 43,6 28,8 80,13 127,12 104,-2 98,-3 137,29 l 33,27 -28,-34 c -61,-74 -98,-91 -221,-107 -100,-13 -189,-46 -217,-81 -9,-10 3,-7 37,10 49,25 134,50 205,60 l 36,5 -57,-54 c -52,-50 -80,-69 -65,-44 10,16 -95,-28 -148,-62 -74,-48 -49,-44 48,7 l 88,46 -37,-44 c -38,-47 -47,-69 -19,-46 9,8 4,-4 -12,-26 -42,-58 -52,-66 -25,-20 36,61 0,25 -53,-52 -50,-73 -102,-211 -94,-250 2,-14 -1,-43 -9,-66 -12,-41 -13,-41 -13,51 -1,100 28,317 59,437 71,279 263,402 730,470 118,18 133,16 73,-5 z m 525,-1 c 61,-12 112,-25 112,-29 0,-5 -54,-6 -119,-3 -138,7 -192,-4 -266,-50 -76,-48 -325,-291 -325,-317 0,-5 37,28 81,73 45,45 75,71 67,57 -8,-14 -39,-65 -69,-114 l -54,-90 -1,-100 c 0,-56 -1,-107 -2,-114 -1,-7 -46,-59 -99,-116 -71,-74 -111,-126 -143,-187 l -45,-84 -3,38 c -5,56 15,238 34,309 8,34 29,89 45,122 16,34 26,50 23,36 -9,-36 -8,-44 13,-155 17,-85 20,-95 25,-65 4,19 1,68 -4,109 -12,79 -3,158 29,256 33,103 40,94 38,-48 -1,-72 -1,-107 1,-77 8,114 25,243 35,259 8,13 9,11 4,-9 -21,-85 -12,-319 13,-334 4,-2 7,64 7,147 0,145 1,154 27,208 31,63 98,125 178,165 28,14 50,28 47,30 -9,9 -93,-28 -149,-67 l -60,-41 18,32 c 44,74 128,129 247,160 95,25 159,25 295,-1 z m 1541,-129 c 42,-23 85,-58 132,-109 70,-78 75,-98 20,-86 -31,7 -51,41 -37,64 8,13 -76,85 -132,113 -40,20 -63,23 -152,23 -96,0 -110,-3 -165,-29 -145,-72 -242,-213 -295,-433 -8,-33 -16,-44 -36,-49 -14,-4 -26,-5 -28,-3 -6,7 81,228 109,276 40,68 159,182 231,220 81,43 123,53 214,49 63,-2 86,-8 139,-36 z m -1224,1 c -14,-6 0,-9 45,-13 40,-3 95,-18 145,-38 85,-35 120,-57 73,-46 -34,8 -318,9 -326,1 -3,-3 21,-5 54,-6 77,0 143,-12 127,-22 -7,-5 -13,-14 -13,-20 1,-7 9,-2 19,11 18,20 27,22 113,21 l 93,-1 -65,-12 c -36,-6 -80,-22 -98,-34 -17,-13 -32,-25 -32,-26 0,-1 33,8 73,22 86,29 161,25 241,-12 l 51,-23 -90,4 c -73,4 -111,0 -202,-21 -147,-34 -253,-35 -207,-1 14,10 5,15 -53,34 -60,19 -78,21 -124,13 -30,-6 -56,-9 -57,-7 -2,2 5,23 16,47 31,71 129,138 202,137 27,0 31,-2 15,-8 z m 1117,-52 c 83,-17 216,-95 196,-114 -3,-3 -37,1 -77,10 -143,30 -251,15 -287,-39 -23,-36 -12,-42 25,-15 50,37 124,37 279,-1 73,-17 132,-36 132,-41 0,-19 -56,-31 -115,-24 -190,20 -209,19 -243,-10 -17,-14 -44,-30 -59,-34 -59,-17 -169,32 -210,95 -15,24 -15,26 13,61 36,44 119,92 188,109 66,16 93,16 158,3 z M 570,3837 c 0,-2 -12,-14 -27,-28 l -28,-24 24,28 c 23,25 31,32 31,24 z m 1945,-21 c 18,-13 18,-14 -3,-48 -34,-55 -52,-65 -126,-71 -170,-15 -357,-166 -499,-403 -50,-84 -46,-89 10,-13 109,150 298,316 386,340 36,9 42,8 66,-15 36,-34 75,-47 121,-40 33,5 40,3 54,-18 14,-21 14,-31 1,-93 -63,-298 -381,-927 -758,-1497 -72,-109 -135,-198 -140,-198 -6,0 -6,14 -2,33 4,17 9,142 10,277 3,335 22,431 131,660 63,132 58,134 -14,6 -92,-160 -154,-369 -172,-580 -6,-66 -12,-122 -14,-124 -10,-9 -21,122 -20,228 1,74 9,147 22,205 11,50 23,112 27,138 9,64 46,188 84,278 17,40 29,74 27,76 -9,10 -134,-261 -166,-360 -11,-34 -13,-36 -25,-21 -11,15 -13,14 -18,-17 -27,-158 -15,-359 33,-550 34,-133 34,-170 1,-62 -34,114 -51,198 -61,306 -40,414 174,1005 477,1312 114,117 246,208 358,249 52,19 185,21 210,2 z m 294,-87 c 83,-41 196,-149 259,-247 127,-198 354,-719 435,-997 73,-250 100,-413 100,-600 -1,-168 -20,-253 -89,-394 -77,-157 -196,-254 -379,-311 -87,-26 -216,-43 -267,-35 l -39,7 43,21 c 58,29 164,139 211,218 41,71 89,189 112,276 53,204 58,503 12,723 -23,111 -96,323 -118,345 -6,5 -1,-11 10,-38 58,-135 105,-346 116,-517 20,-313 -81,-649 -251,-830 -92,-99 -227,-166 -314,-157 -56,6 -80,33 -80,92 0,96 99,424 172,569 16,32 27,60 25,62 -6,6 -52,-63 -86,-131 -17,-33 -31,-57 -31,-53 0,18 46,201 90,353 118,412 143,579 124,822 l -9,108 -6,-200 c -7,-238 -18,-293 -119,-602 -75,-230 -121,-428 -175,-751 -27,-157 -40,-211 -54,-225 -41,-41 -159,-29 -271,28 -165,84 -277,261 -312,493 -6,42 -15,81 -19,86 -12,13 -22,-119 -15,-190 9,-84 45,-189 86,-250 50,-73 138,-155 202,-189 31,-16 55,-31 54,-33 -7,-6 -110,40 -198,90 -144,80 -279,228 -348,381 -32,69 -27,85 58,198 321,427 433,612 647,1069 98,210 175,398 214,526 17,55 39,108 49,117 69,63 227,-38 352,-225 69,-102 215,-389 293,-573 85,-202 175,-489 213,-680 l 14,-70 -5,107 c -11,247 -100,504 -357,1026 -153,311 -233,411 -400,502 -84,46 -99,66 -84,107 8,21 53,12 135,-28 z M 424,3643 c -9,-15 -37,-75 -60,-133 -24,-58 -43,-100 -44,-93 0,25 61,178 86,215 30,43 46,52 18,11 z M 3311,1196 c -25,-30 -164,-119 -228,-145 -218,-89 -487,-118 -665,-72 -86,22 -147,50 -113,51 11,0 50,11 88,24 61,22 67,23 67,7 0,-31 11,-30 46,4 40,40 88,52 147,35 105,-29 177,-41 237,-38 l 65,3 -92,18 c -152,29 -150,34 12,34 130,0 163,3 245,26 52,14 115,34 140,45 54,25 66,27 51,8 z m -1016,-66 c 17,0 47,-3 68,-6 49,-9 34,-28 -34,-44 -46,-11 -53,-10 -102,14 -28,14 -70,41 -92,60 l -40,34 85,-29 c 47,-16 99,-29 115,-29 z"
       id="path1"
       style="fill:url(#linearGradient2);fill-opacity:1" />
    <path
       d="m 955,4596 c -36,-11 -24,-13 135,-19 96,-3 186,-9 200,-12 23,-6 24,-6 5,6 -57,36 -257,51 -340,25 z"
       id="path2"
       style="fill:url(#linearGradient2);fill-opacity:1" />
    <path
       d="m 795,4566 c -63,-30 -190,-106 -204,-123 -7,-8 -12,-10 147,77 114,62 143,80 129,80 -1,0 -34,-15 -72,-34 z"
       id="path3"
       style="fill:url(#linearGradient2);fill-opacity:1" />
    <path
       d="m 444,3768 c -39,-42 -78,-98 -67,-97 11,1 116,129 105,129 -4,0 -22,-15 -38,-32 z"
       id="path4"
       style="fill:url(#linearGradient2);fill-opacity:1" />
    <path
       d="m 880,3610 c -7,-33 -10,-63 -6,-67 3,-3 6,5 7,18 0,21 2,19 14,-11 12,-33 13,-30 8,40 -3,41 -7,76 -8,78 -1,1 -8,-25 -15,-58 z"
       id="path5"
       style="fill:url(#linearGradient2);fill-opacity:1" />
    <path
       d="m 857,3423 c -20,-59 -32,-131 -22,-121 9,8 46,160 41,166 -2,2 -11,-18 -19,-45 z"
       id="path6"
       style="fill:url(#linearGradient2);fill-opacity:1" />
    <path
       d="m 2254,3736 c -65,-21 -157,-73 -225,-130 -82,-68 -232,-255 -279,-346 -18,-35 -11,-27 57,65 177,239 272,321 483,413 34,15 14,14 -36,-2 z"
       id="path7"
       style="fill:url(#linearGradient2);fill-opacity:1" />
    <path
       d="m 1720,1645 c 0,-54 131,-229 204,-274 72,-45 58,-21 -89,154 -63,75 -115,129 -115,120 z"
       id="path8"
       style="fill:url(#linearGradient2);fill-opacity:1" />
    <path
       d="m 4814,1917 c -12,-17 -36,-71 -54,-119 -40,-109 -64,-133 -228,-233 -155,-95 -193,-122 -352,-249 -146,-117 -295,-258 -356,-337 -23,-31 -72,-116 -107,-190 -35,-74 -80,-150 -99,-170 -30,-33 -86,-59 -125,-59 -8,0 -13,-14 -13,-35 v -35 h 55 c 69,0 99,-18 130,-79 33,-66 70,-84 181,-89 113,-5 217,19 334,77 116,59 164,93 260,190 161,162 283,389 331,618 7,35 13,155 14,298 2,234 3,242 29,315 46,126 46,167 0,97 z m -89,-372 c -26,-124 -77,-259 -136,-361 -32,-55 -36,-64 -16,-46 52,49 111,187 157,367 l 28,110 2,-65 c 7,-278 -22,-434 -112,-615 -166,-329 -425,-538 -713,-575 -160,-20 -249,17 -233,97 5,23 50,20 128,-8 64,-24 58,-14 -24,35 -64,39 -58,45 20,21 27,-8 72,-14 99,-14 l 50,1 -65,21 -65,22 80,5 80,5 -95,9 c -118,11 -98,21 68,36 64,6 146,18 182,26 76,18 199,81 256,131 38,33 37,33 -24,-7 -120,-79 -242,-120 -357,-120 l -50,1 95,38 c 112,45 229,100 215,100 -5,1 -44,-8 -85,-19 -104,-27 -106,-25 -20,21 166,91 267,176 394,332 75,92 27,57 -85,-63 C 4368,891 4345,875 4060,727 3856,622 3750,579 3656,566 l -49,-8 27,33 c 16,18 58,94 93,169 36,74 85,162 108,195 114,161 498,476 712,583 45,23 84,46 88,52 3,5 11,10 17,10 6,0 -18,-30 -53,-67 -36,-38 -90,-99 -121,-138 -31,-38 -77,-90 -103,-115 l -48,-45 27,49 c 14,27 25,51 23,53 -2,2 -16,-19 -31,-47 -15,-27 -24,-50 -19,-50 4,0 -17,-25 -47,-55 -54,-55 -164,-136 -228,-169 l -33,-17 12,22 c 6,12 63,74 127,137 85,85 117,111 123,101 7,-11 9,-11 9,2 0,19 109,125 218,213 39,32 72,60 72,63 0,27 -396,-310 -520,-443 -35,-38 -60,-62 -56,-54 6,10 6,12 -1,5 -21,-22 -94,-147 -91,-156 2,-6 26,10 53,35 28,26 95,74 150,108 129,79 168,110 291,233 55,55 129,124 163,154 34,29 59,56 56,59 -3,3 -22,-10 -43,-29 -20,-19 -46,-42 -57,-50 -19,-13 -19,-13 -5,6 52,71 192,221 183,198 -3,-10 -10,-24 -16,-30 -5,-7 -6,-13 -1,-13 4,0 -1,-7 -12,-16 -10,-8 -13,-13 -6,-9 6,3 12,3 12,0 0,-25 -115,-199 -172,-261 -21,-23 -75,-65 -119,-94 -44,-29 -77,-55 -75,-58 12,-11 176,98 232,154 69,68 138,195 174,315 12,39 23,69 25,67 2,-1 -7,-52 -20,-113 z M 3628,534 c 12,-4 22,-11 22,-16 0,-5 -9,-6 -21,-3 -11,4 -42,10 -67,15 l -47,8 45,1 c 25,0 55,-2 68,-5 z m 62,-76 c 0,-19 -2,-20 -10,-8 -13,19 -13,30 0,30 6,0 10,-10 10,-22 z"
       id="path9"
       style="fill:url(#linearGradient2);fill-opacity:1" />
    <path
       d="M 4676,1065 C 4654,987 4595,892 4488,765 4320,564 4175,459 4000,414 c -88,-22 -200,-15 -241,15 -30,22 -30,22 -20,2 22,-40 69,-56 166,-55 76,0 102,5 165,30 144,57 301,176 402,302 141,178 238,351 226,408 -2,9 -12,-14 -22,-51 z"
       id="path10"
       style="fill:url(#linearGradient2);fill-opacity:1" />
    <path
       d="M 4275,1067 C 4099,996 3984,916 3825,754 3759,686 3694,627 3681,622 c -43,-16 -8,-20 49,-6 56,13 410,188 552,272 43,25 99,65 125,89 47,43 46,43 -42,-15 -49,-33 -137,-83 -195,-112 l -105,-53 45,50 c 117,129 164,187 135,166 -57,-43 -73,-59 -140,-143 -50,-64 -83,-94 -129,-120 -79,-46 -206,-104 -212,-97 -13,13 209,218 302,280 91,61 257,147 282,147 6,0 14,5 17,10 9,15 -3,12 -90,-23 z"
       id="path11"
       style="fill:url(#linearGradient2);fill-opacity:1" />
    <path
       d="m 3918,992 c -47,-51 -80,-102 -134,-204 -37,-71 -47,-95 -30,-78 13,14 41,59 62,100 21,41 60,103 87,139 50,66 59,91 15,43 z"
       id="path12"
       style="fill:url(#linearGradient2);fill-opacity:1" />
    <path
       d="m 4515,920 c -94,-63 -106,-81 -20,-31 47,28 126,90 115,91 -3,0 -45,-27 -95,-60 z"
       id="path13"
       style="fill:url(#linearGradient2);fill-opacity:1" />
    <path
       d="m 4090,504 c -24,-8 -85,-18 -135,-23 l -90,-8 70,-2 c 67,-1 168,18 204,39 22,13 5,11 -49,-6 z"
       id="path14"
       style="fill:url(#linearGradient2);fill-opacity:1" />
  </g>
</svg>
